<?xml version="1.0" standalone="no"?>
<!DOCTYPE svg PUBLIC "-//W3C//DTD SVG 20010904//EN"
 "http://www.w3.org/TR/2001/REC-SVG-20010904/DTD/svg10.dtd">
<svg version="1.0" xmlns="http://www.w3.org/2000/svg"
 width="2112.000000pt" height="2112.000000pt" viewBox="0 0 2112.000000 2112.000000"
 preserveAspectRatio="xMidYMid meet">
<metadata>
Created by potrace 1.14, written by Peter Selinger 2001-2017
</metadata>
<g transform="translate(0.000000,2112.000000) scale(0.100000,-0.100000)"
fill="#000000" stroke="none">
<path d="M7175 13981 c-3 -6 -11 -8 -18 -5 -11 4 -13 -109 -13 -583 l1 -588
115 0 c63 0 122 3 131 7 15 6 16 52 15 453 -1 245 1 446 4 446 3 1 1421 2
3153 3 2801 1 3147 0 3148 -14 0 -8 1 -212 1 -452 1 -393 3 -438 17 -439 9 -1
68 -2 132 -3 l117 -1 -2 120 c-1 66 2 126 7 133 5 6 6 12 1 12 -5 0 -9 201 -8
454 l1 453 -61 2 c-61 2 -75 2 -98 0 -25 -2 -1994 -1 -2018 1 -14 1 -31 1 -37
1 -7 -1 -19 -1 -25 -2 -23 -1 -392 0 -418 1 -14 1 -31 1 -37 1 -7 -1 -19 -1
-25 -2 -24 -2 -1353 -1 -1378 1 -14 1 -31 1 -37 1 -7 -1 -19 -1 -25 -2 -23 -1
-392 0 -418 1 -14 1 -31 1 -37 1 -7 -1 -19 -1 -25 -2 -24 -2 -1353 -1 -1378 1
-14 1 -31 1 -37 1 -7 -1 -19 -1 -25 -2 -23 -1 -392 0 -418 1 -14 1 -32 1 -40
1 -63 -2 -245 1 -251 5 -4 2 -10 0 -14 -5z"/>
<path d="M12866 12283 c-1 -2 -47 -5 -102 -8 -54 -3 -115 -8 -134 -10 -19 -3
-60 -7 -90 -10 -30 -3 -66 -7 -80 -10 -14 -3 -41 -8 -60 -11 -19 -3 -42 -7
-50 -10 -8 -3 -33 -8 -55 -11 -22 -3 -48 -9 -57 -14 -10 -6 -18 -8 -18 -5 0 3
-15 0 -32 -5 -43 -13 -70 -20 -88 -23 -8 -2 -28 -8 -43 -15 -16 -6 -35 -11
-43 -11 -8 0 -14 -4 -14 -8 0 -4 -9 -8 -19 -9 -10 -1 -39 -11 -64 -22 -25 -12
-49 -21 -52 -21 -28 0 -334 -172 -343 -192 -2 -5 -10 -8 -17 -8 -7 0 -15 -3
-17 -7 -1 -5 -25 -26 -53 -47 -46 -37 -165 -154 -226 -223 -49 -56 -138 -199
-179 -287 -41 -89 -100 -253 -104 -291 -2 -11 -8 -45 -14 -75 -27 -130 -35
-212 -35 -385 0 -122 4 -179 17 -285 21 -166 76 -352 144 -485 15 -27 26 -52
27 -55 1 -5 19 -36 64 -105 37 -57 34 -53 105 -136 76 -90 158 -169 230 -222
28 -21 58 -44 67 -52 74 -60 412 -227 442 -217 4 1 7 -2 7 -6 0 -5 24 -14 53
-22 28 -8 57 -15 62 -17 48 -13 191 -53 193 -53 1 0 3 0 5 -1 12 -3 148 -25
287 -45 63 -9 285 -22 425 -25 56 -1 390 16 390 20 0 1 20 4 45 6 62 5 130 14
160 20 14 3 39 7 55 10 25 4 220 49 250 58 6 2 37 11 69 21 107 32 314 120
327 139 3 5 10 9 15 9 40 2 227 128 337 228 74 66 107 101 107 110 0 6 4 10
10 10 20 0 152 188 203 290 17 36 35 67 40 68 4 2 7 9 7 16 0 7 11 40 25 73
68 168 109 411 108 643 0 96 -9 240 -18 295 -2 17 -7 44 -9 60 -11 78 -57 241
-89 320 -21 52 -108 219 -123 236 -8 8 -14 21 -14 27 0 7 -4 12 -8 12 -4 0
-15 13 -25 29 -34 58 -195 229 -265 281 -19 14 -39 30 -45 36 -45 40 -250 164
-273 164 -7 0 -14 4 -14 8 0 9 -205 95 -226 95 -8 0 -14 5 -14 10 0 6 -3 8 -6
4 -4 -3 -19 0 -35 9 -16 8 -32 14 -36 14 -5 1 -24 5 -43 10 -19 5 -38 10 -42
10 -4 1 -22 6 -40 11 -18 5 -46 12 -63 15 -42 8 -47 9 -70 16 -17 6 -46 10
-142 23 -13 2 -40 6 -60 9 -67 10 -136 16 -228 22 -95 5 -395 11 -399 7z m301
-626 c6 -4 14 -3 18 3 4 6 10 8 15 5 5 -3 31 -8 57 -11 72 -7 121 -14 198 -30
130 -26 178 -38 194 -48 6 -4 20 -9 31 -11 24 -5 193 -76 200 -84 3 -4 16 -12
30 -19 82 -42 182 -120 240 -186 14 -17 32 -37 41 -45 32 -32 137 -201 124
-201 -3 0 1 -10 9 -22 8 -13 22 -48 30 -79 33 -114 42 -202 40 -379 -3 -197
-5 -209 -29 -300 -9 -36 -18 -69 -19 -75 -6 -23 -28 -73 -48 -110 -11 -22 -26
-50 -32 -62 -6 -13 -14 -23 -18 -23 -5 0 -8 -5 -8 -12 0 -28 -138 -171 -230
-239 -56 -41 -177 -109 -194 -109 -9 0 -16 -4 -16 -9 0 -8 -54 -27 -56 -19 0
2 -7 -2 -15 -8 -12 -10 -67 -31 -104 -40 -5 -2 -37 -10 -70 -20 -86 -23 -111
-29 -180 -38 -22 -3 -51 -8 -64 -10 -100 -21 -487 -21 -592 -1 -13 3 -40 7
-59 10 -130 17 -343 81 -464 140 -261 127 -435 321 -517 577 -10 34 -17 63
-14 66 2 2 0 12 -4 21 -26 47 -31 424 -8 531 19 91 42 170 49 170 4 0 8 6 8
13 0 22 39 97 86 168 50 75 145 173 207 216 23 15 48 34 56 41 19 18 254 132
273 132 8 0 18 3 22 7 3 4 12 8 19 9 7 1 32 7 57 15 61 17 62 17 90 23 102 23
158 31 264 40 26 3 50 6 51 8 7 7 321 2 332 -5z"/>
<path d="M4 12221 c-2 -2 -4 -752 -4 -1665 l0 -1661 1290 0 c728 0 1290 4
1290 9 0 5 6 3 13 -3 8 -6 16 -9 18 -6 3 2 40 7 82 9 147 11 317 55 447 119
25 12 47 25 50 28 3 3 16 12 28 18 56 30 184 154 228 221 16 25 31 47 34 50
10 9 76 170 79 193 1 4 1 8 2 10 0 1 2 9 4 17 2 8 6 29 10 45 9 38 15 356 7
370 -4 6 -7 19 -8 30 -2 32 -40 147 -65 195 -35 70 -100 159 -151 209 -65 64
-74 71 -150 114 -13 6 -25 15 -28 18 -10 10 -96 46 -155 64 -33 9 -64 21 -68
25 -5 4 22 20 60 36 138 59 267 163 346 281 54 82 88 148 80 157 -4 3 0 6 7 6
7 0 10 3 7 6 -3 4 -2 14 3 24 5 9 12 30 15 46 2 16 8 40 11 54 4 14 8 81 9
151 2 103 -1 141 -20 216 -23 89 -82 220 -111 243 -8 7 -14 18 -14 24 0 18
-141 149 -205 191 -93 59 -219 113 -309 131 -35 7 -79 15 -116 21 -40 7 -2709
10 -2716 4z m2466 -624 c14 -3 32 -7 40 -9 31 -7 106 -51 138 -81 94 -89 125
-271 70 -401 -23 -54 -29 -61 -80 -113 -33 -33 -112 -76 -164 -90 -16 -4 -414
-9 -884 -10 l-855 -4 2 348 c0 191 1 353 2 359 1 12 1681 12 1731 1z m65
-1322 c61 -11 162 -65 201 -107 61 -66 95 -158 96 -263 2 -160 -48 -262 -162
-327 -50 -29 -148 -61 -161 -52 -5 3 -9 2 -9 -3 0 -4 -397 -8 -882 -8 l-882 0
-1 370 c0 204 1 378 3 387 4 15 66 16 880 14 483 -2 895 -6 917 -11z"/>
<path d="M6069 12210 c-7 -102 -2 -3303 5 -3308 7 -4 2720 -7 2821 -3 20 1 20
8 20 326 l0 325 -1056 0 -1055 0 0 1331 c1 877 -2 1333 -9 1337 -5 4 -171 7
-367 7 -312 0 -358 -2 -359 -15z"/>
<path d="M17213 12200 c12 -13 41 -45 64 -70 22 -25 59 -67 82 -94 22 -28 47
-54 56 -58 8 -5 15 -13 15 -18 0 -4 17 -26 38 -48 20 -21 55 -60 77 -86 22
-26 54 -62 70 -80 17 -17 50 -55 74 -83 24 -29 61 -71 83 -95 22 -24 60 -67
86 -96 26 -30 60 -67 75 -84 15 -17 51 -58 80 -91 29 -33 63 -72 77 -87 14
-15 48 -54 76 -86 29 -33 62 -71 75 -85 48 -53 138 -155 159 -179 25 -29 108
-123 166 -188 l42 -46 -21 -27 c-11 -16 -26 -30 -34 -33 -7 -3 -13 -10 -13
-15 0 -6 -24 -36 -54 -68 -59 -63 -82 -87 -196 -214 -41 -46 -92 -102 -112
-124 -20 -22 -47 -51 -58 -65 -24 -28 -172 -191 -207 -227 -12 -13 -21 -23
-19 -23 2 0 -23 -27 -56 -60 -32 -33 -58 -62 -58 -65 0 -2 -17 -22 -37 -43
-39 -40 -149 -161 -212 -233 -20 -23 -61 -68 -92 -100 -31 -33 -55 -59 -52
-59 3 0 -13 -17 -115 -127 -24 -25 -71 -77 -105 -116 -34 -38 -72 -80 -84 -94
-13 -13 -23 -27 -23 -31 0 -4 201 -7 446 -6 347 1 448 4 454 14 9 15 59 75 91
111 13 14 47 52 74 84 28 32 55 63 60 69 6 6 35 40 65 76 30 36 66 77 80 91
14 15 36 41 50 59 14 17 39 46 55 64 17 18 53 59 80 91 28 32 61 71 75 86 14
15 39 44 55 64 17 21 44 52 60 70 17 18 46 52 65 75 19 23 40 47 46 54 16 18
103 117 137 159 61 72 87 95 104 92 10 -2 23 -4 29 -4 6 -1 69 -70 139 -153
71 -84 136 -160 144 -169 9 -9 34 -38 56 -64 22 -27 45 -53 50 -59 6 -6 33
-38 60 -71 28 -33 59 -69 70 -81 11 -12 38 -44 60 -70 22 -26 47 -55 55 -64 8
-9 32 -36 52 -60 20 -25 47 -57 60 -72 13 -14 32 -37 42 -50 11 -12 33 -39 50
-58 17 -20 51 -60 76 -90 25 -29 62 -72 83 -94 21 -23 45 -53 55 -68 9 -16 25
-28 37 -29 72 -2 945 -3 945 -1 0 2 -6 9 -12 16 -7 8 -32 35 -55 62 -23 27
-54 63 -70 80 -31 34 -144 161 -183 206 -14 16 -41 46 -60 67 -32 35 -112 126
-157 177 -10 11 -50 56 -90 100 -39 43 -81 90 -93 104 -26 30 -115 132 -150
170 -14 15 -54 60 -90 101 -71 80 -229 258 -245 275 -5 6 -39 44 -75 84 -36
41 -74 84 -85 96 -11 12 -47 52 -80 89 -133 150 -121 130 -94 158 13 14 40 42
59 64 108 121 207 230 225 248 11 12 38 41 59 66 33 38 89 100 206 229 69 76
167 185 183 204 22 25 165 182 190 208 9 10 17 23 17 29 0 5 5 7 10 4 6 -3 10
-2 10 2 0 5 23 33 50 63 28 30 50 58 50 63 0 4 5 5 10 2 6 -3 10 -1 10 5 0 6
19 32 43 57 91 99 104 113 167 183 35 40 72 82 81 94 l17 21 -445 0 -444 0
-32 -36 c-18 -20 -52 -60 -77 -88 -25 -29 -58 -66 -73 -84 -28 -32 -77 -89
-118 -137 -27 -32 -111 -130 -124 -144 -5 -6 -26 -29 -45 -52 -19 -22 -60 -69
-90 -104 -30 -35 -75 -86 -99 -114 -36 -42 -82 -96 -146 -169 -6 -7 -39 -46
-74 -87 -83 -97 -102 -103 -155 -46 -47 49 -96 106 -96 112 0 2 -10 14 -22 26
-13 13 -39 43 -58 66 -42 52 -59 73 -113 136 -23 27 -49 57 -57 68 -8 11 -30
35 -47 54 -18 19 -33 38 -33 42 0 4 -8 15 -17 23 -19 16 -27 26 -103 119 -25
30 -48 57 -51 60 -3 3 -30 34 -60 70 -29 36 -58 70 -64 76 -5 6 -23 28 -40 49
-16 21 -49 59 -72 84 -23 25 -43 52 -43 59 0 16 39 14 -507 16 l-472 1 22 -25z"/>
<path d="M7152 8301 c-13 -9 -11 -1151 2 -1152 29 -3 6793 -4 6807 -1 14 3 15
63 15 580 l-1 577 -115 1 c-63 1 -122 0 -131 -2 -14 -4 -16 -52 -15 -447 l0
-442 -3154 0 -3154 0 1 446 0 445 -124 0 c-68 0 -127 -2 -131 -5z"/>
</g>
</svg>
